<mxfile host="app.diagrams.net" agent="Mozilla/5.0 (Windows NT 10.0; Win64; x64) AppleWebKit/537.36 (KHTML, like Gecko) Chrome/137.0.0.0 Safari/537.36" version="27.1.1">
  <diagram name="Page-1" id="kvSpXP5YtNpuujaqsHah">
    <mxGraphModel dx="1042" dy="527" grid="1" gridSize="10" guides="1" tooltips="1" connect="1" arrows="1" fold="1" page="1" pageScale="1" pageWidth="827" pageHeight="1169" math="0" shadow="0">
      <root>
        <mxCell id="0" />
        <mxCell id="1" parent="0" />
        <mxCell id="rHQZIwRg0L-bGv6IgCnG-2" value="顯示介紹頁面" style="whiteSpace=wrap;strokeWidth=2;fontSize=14;" parent="1" vertex="1">
          <mxGeometry x="439" y="140" width="126" height="46" as="geometry" />
        </mxCell>
        <mxCell id="rHQZIwRg0L-bGv6IgCnG-111" style="edgeStyle=orthogonalEdgeStyle;rounded=0;orthogonalLoop=1;jettySize=auto;html=1;exitX=0.5;exitY=1;exitDx=0;exitDy=0;entryX=0.5;entryY=0;entryDx=0;entryDy=0;endArrow=block;endFill=0;" parent="1" source="rHQZIwRg0L-bGv6IgCnG-3" target="rHQZIwRg0L-bGv6IgCnG-4" edge="1">
          <mxGeometry relative="1" as="geometry" />
        </mxCell>
        <mxCell id="rHQZIwRg0L-bGv6IgCnG-113" value="&lt;font style=&quot;font-size: 13px;&quot;&gt;新用戶&lt;/font&gt;" style="edgeLabel;html=1;align=center;verticalAlign=middle;resizable=0;points=[];" parent="rHQZIwRg0L-bGv6IgCnG-111" vertex="1" connectable="0">
          <mxGeometry x="-0.0644" y="1" relative="1" as="geometry">
            <mxPoint as="offset" />
          </mxGeometry>
        </mxCell>
        <mxCell id="rHQZIwRg0L-bGv6IgCnG-112" style="edgeStyle=orthogonalEdgeStyle;rounded=0;orthogonalLoop=1;jettySize=auto;html=1;exitX=0.5;exitY=1;exitDx=0;exitDy=0;entryX=0.5;entryY=0;entryDx=0;entryDy=0;endArrow=block;endFill=0;" parent="1" source="rHQZIwRg0L-bGv6IgCnG-3" target="rHQZIwRg0L-bGv6IgCnG-5" edge="1">
          <mxGeometry relative="1" as="geometry" />
        </mxCell>
        <mxCell id="rHQZIwRg0L-bGv6IgCnG-114" value="&lt;font style=&quot;font-size: 13px;&quot;&gt;舊用戶&lt;/font&gt;" style="edgeLabel;html=1;align=center;verticalAlign=middle;resizable=0;points=[];" parent="rHQZIwRg0L-bGv6IgCnG-112" vertex="1" connectable="0">
          <mxGeometry x="-0.0282" y="-2" relative="1" as="geometry">
            <mxPoint as="offset" />
          </mxGeometry>
        </mxCell>
        <mxCell id="rHQZIwRg0L-bGv6IgCnG-3" value="用戶身份判斷" style="rhombus;strokeWidth=2;whiteSpace=wrap;fontSize=14;fontStyle=0" parent="1" vertex="1">
          <mxGeometry x="427" y="228" width="150" height="132" as="geometry" />
        </mxCell>
        <mxCell id="rHQZIwRg0L-bGv6IgCnG-4" value="註冊流程" style="whiteSpace=wrap;strokeWidth=2;fontSize=14;" parent="1" vertex="1">
          <mxGeometry x="308" y="450" width="124" height="54" as="geometry" />
        </mxCell>
        <mxCell id="rHQZIwRg0L-bGv6IgCnG-117" style="edgeStyle=orthogonalEdgeStyle;rounded=0;orthogonalLoop=1;jettySize=auto;html=1;exitX=0.5;exitY=1;exitDx=0;exitDy=0;entryX=0.5;entryY=0;entryDx=0;entryDy=0;endArrow=block;endFill=0;" parent="1" source="rHQZIwRg0L-bGv6IgCnG-5" target="rHQZIwRg0L-bGv6IgCnG-9" edge="1">
          <mxGeometry relative="1" as="geometry" />
        </mxCell>
        <mxCell id="rHQZIwRg0L-bGv6IgCnG-5" value="登入流程" style="whiteSpace=wrap;strokeWidth=2;fontSize=14;" parent="1" vertex="1">
          <mxGeometry x="571" y="450" width="124" height="54" as="geometry" />
        </mxCell>
        <mxCell id="rHQZIwRg0L-bGv6IgCnG-6" value="填寫初步表單" style="whiteSpace=wrap;strokeWidth=2;fontSize=14;" parent="1" vertex="1">
          <mxGeometry x="292" y="540" width="156" height="54" as="geometry" />
        </mxCell>
        <mxCell id="rHQZIwRg0L-bGv6IgCnG-124" style="edgeStyle=orthogonalEdgeStyle;rounded=0;orthogonalLoop=1;jettySize=auto;html=1;exitX=0.5;exitY=1;exitDx=0;exitDy=0;entryX=0.5;entryY=0;entryDx=0;entryDy=0;endArrow=block;endFill=0;" parent="1" source="rHQZIwRg0L-bGv6IgCnG-7" target="rHQZIwRg0L-bGv6IgCnG-8" edge="1">
          <mxGeometry relative="1" as="geometry">
            <Array as="points">
              <mxPoint x="370" y="810" />
              <mxPoint x="502" y="810" />
            </Array>
          </mxGeometry>
        </mxCell>
        <mxCell id="rHQZIwRg0L-bGv6IgCnG-7" value="建立個人檔案" style="whiteSpace=wrap;strokeWidth=2;fontSize=14;" parent="1" vertex="1">
          <mxGeometry x="292" y="639" width="156" height="54" as="geometry" />
        </mxCell>
        <mxCell id="rHQZIwRg0L-bGv6IgCnG-8" value="用戶管理服務處理" style="whiteSpace=wrap;strokeWidth=2;fontSize=14;" parent="1" vertex="1">
          <mxGeometry x="408" y="860" width="188" height="54" as="geometry" />
        </mxCell>
        <mxCell id="rHQZIwRg0L-bGv6IgCnG-119" style="edgeStyle=orthogonalEdgeStyle;rounded=0;orthogonalLoop=1;jettySize=auto;html=1;exitX=0.5;exitY=1;exitDx=0;exitDy=0;entryX=0;entryY=0.5;entryDx=0;entryDy=0;endArrow=block;endFill=0;" parent="1" source="rHQZIwRg0L-bGv6IgCnG-9" target="rHQZIwRg0L-bGv6IgCnG-10" edge="1">
          <mxGeometry relative="1" as="geometry" />
        </mxCell>
        <mxCell id="rHQZIwRg0L-bGv6IgCnG-9" value="身份驗證" style="whiteSpace=wrap;strokeWidth=2;fontSize=14;" parent="1" vertex="1">
          <mxGeometry x="485" y="585" width="124" height="54" as="geometry" />
        </mxCell>
        <mxCell id="rHQZIwRg0L-bGv6IgCnG-120" style="edgeStyle=orthogonalEdgeStyle;rounded=0;orthogonalLoop=1;jettySize=auto;html=1;exitX=1;exitY=0;exitDx=0;exitDy=0;entryX=0.75;entryY=1;entryDx=0;entryDy=0;endArrow=block;endFill=0;" parent="1" source="rHQZIwRg0L-bGv6IgCnG-10" target="rHQZIwRg0L-bGv6IgCnG-5" edge="1">
          <mxGeometry relative="1" as="geometry" />
        </mxCell>
        <mxCell id="rHQZIwRg0L-bGv6IgCnG-121" value="&lt;font style=&quot;font-size: 13px;&quot;&gt;失敗&lt;/font&gt;" style="edgeLabel;html=1;align=center;verticalAlign=middle;resizable=0;points=[];" parent="rHQZIwRg0L-bGv6IgCnG-120" vertex="1" connectable="0">
          <mxGeometry x="0.2" relative="1" as="geometry">
            <mxPoint as="offset" />
          </mxGeometry>
        </mxCell>
        <mxCell id="rHQZIwRg0L-bGv6IgCnG-122" style="edgeStyle=orthogonalEdgeStyle;rounded=0;orthogonalLoop=1;jettySize=auto;html=1;exitX=0.5;exitY=1;exitDx=0;exitDy=0;entryX=0.5;entryY=0;entryDx=0;entryDy=0;endArrow=block;endFill=0;" parent="1" source="rHQZIwRg0L-bGv6IgCnG-10" target="rHQZIwRg0L-bGv6IgCnG-8" edge="1">
          <mxGeometry relative="1" as="geometry">
            <Array as="points">
              <mxPoint x="636" y="810" />
              <mxPoint x="502" y="810" />
            </Array>
          </mxGeometry>
        </mxCell>
        <mxCell id="rHQZIwRg0L-bGv6IgCnG-123" value="&lt;font style=&quot;font-size: 13px;&quot;&gt;成功&lt;/font&gt;" style="edgeLabel;html=1;align=center;verticalAlign=middle;resizable=0;points=[];" parent="rHQZIwRg0L-bGv6IgCnG-122" vertex="1" connectable="0">
          <mxGeometry x="-0.1034" relative="1" as="geometry">
            <mxPoint as="offset" />
          </mxGeometry>
        </mxCell>
        <mxCell id="rHQZIwRg0L-bGv6IgCnG-10" value="驗證結果" style="rhombus;strokeWidth=2;whiteSpace=wrap;fontSize=14;" parent="1" vertex="1">
          <mxGeometry x="577" y="660" width="118" height="118" as="geometry" />
        </mxCell>
        <mxCell id="rHQZIwRg0L-bGv6IgCnG-125" style="edgeStyle=orthogonalEdgeStyle;rounded=0;orthogonalLoop=1;jettySize=auto;html=1;exitX=0.5;exitY=1;exitDx=0;exitDy=0;entryX=0.5;entryY=0;entryDx=0;entryDy=0;endArrow=block;endFill=0;" parent="1" source="rHQZIwRg0L-bGv6IgCnG-11" target="rHQZIwRg0L-bGv6IgCnG-13" edge="1">
          <mxGeometry relative="1" as="geometry" />
        </mxCell>
        <mxCell id="rHQZIwRg0L-bGv6IgCnG-11" value="載入個人化首頁&#xa;顯示個人學習進度概覽" style="whiteSpace=wrap;strokeWidth=2;fontSize=14;" parent="1" vertex="1">
          <mxGeometry x="395" y="970" width="214" height="77" as="geometry" />
        </mxCell>
        <mxCell id="rHQZIwRg0L-bGv6IgCnG-126" style="edgeStyle=orthogonalEdgeStyle;rounded=0;orthogonalLoop=1;jettySize=auto;html=1;exitX=0;exitY=0.5;exitDx=0;exitDy=0;entryX=0.5;entryY=0;entryDx=0;entryDy=0;endArrow=block;endFill=0;" parent="1" source="rHQZIwRg0L-bGv6IgCnG-13" target="rHQZIwRg0L-bGv6IgCnG-14" edge="1">
          <mxGeometry relative="1" as="geometry" />
        </mxCell>
        <mxCell id="rHQZIwRg0L-bGv6IgCnG-127" value="&lt;font style=&quot;font-size: 13px;&quot;&gt;閱讀&lt;/font&gt;" style="edgeLabel;html=1;align=center;verticalAlign=middle;resizable=0;points=[];" parent="rHQZIwRg0L-bGv6IgCnG-126" vertex="1" connectable="0">
          <mxGeometry x="-0.3467" y="1" relative="1" as="geometry">
            <mxPoint x="114" y="-1" as="offset" />
          </mxGeometry>
        </mxCell>
        <mxCell id="rHQZIwRg0L-bGv6IgCnG-128" style="edgeStyle=orthogonalEdgeStyle;rounded=0;orthogonalLoop=1;jettySize=auto;html=1;exitX=0;exitY=1;exitDx=0;exitDy=0;entryX=0.5;entryY=0;entryDx=0;entryDy=0;endArrow=block;endFill=0;" parent="1" source="rHQZIwRg0L-bGv6IgCnG-13" target="rHQZIwRg0L-bGv6IgCnG-15" edge="1">
          <mxGeometry relative="1" as="geometry" />
        </mxCell>
        <mxCell id="rHQZIwRg0L-bGv6IgCnG-129" value="&lt;font style=&quot;font-size: 13px;&quot;&gt;查看人物關係&lt;/font&gt;" style="edgeLabel;html=1;align=center;verticalAlign=middle;resizable=0;points=[];" parent="rHQZIwRg0L-bGv6IgCnG-128" vertex="1" connectable="0">
          <mxGeometry x="-0.5353" y="3" relative="1" as="geometry">
            <mxPoint as="offset" />
          </mxGeometry>
        </mxCell>
        <mxCell id="rHQZIwRg0L-bGv6IgCnG-131" style="edgeStyle=orthogonalEdgeStyle;rounded=0;orthogonalLoop=1;jettySize=auto;html=1;exitX=0.5;exitY=1;exitDx=0;exitDy=0;entryX=0.5;entryY=0;entryDx=0;entryDy=0;fontSize=13;endArrow=block;endFill=0;" parent="1" source="rHQZIwRg0L-bGv6IgCnG-13" target="rHQZIwRg0L-bGv6IgCnG-16" edge="1">
          <mxGeometry relative="1" as="geometry" />
        </mxCell>
        <mxCell id="rHQZIwRg0L-bGv6IgCnG-132" value="訂學習目標時間，查看成就" style="edgeLabel;html=1;align=center;verticalAlign=middle;resizable=0;points=[];fontSize=13;" parent="rHQZIwRg0L-bGv6IgCnG-131" vertex="1" connectable="0">
          <mxGeometry x="-0.3925" y="2" relative="1" as="geometry">
            <mxPoint as="offset" />
          </mxGeometry>
        </mxCell>
        <mxCell id="rHQZIwRg0L-bGv6IgCnG-133" style="edgeStyle=orthogonalEdgeStyle;rounded=0;orthogonalLoop=1;jettySize=auto;html=1;exitX=1;exitY=0.5;exitDx=0;exitDy=0;entryX=0.5;entryY=0;entryDx=0;entryDy=0;endArrow=block;endFill=0;" parent="1" source="rHQZIwRg0L-bGv6IgCnG-13" target="rHQZIwRg0L-bGv6IgCnG-17" edge="1">
          <mxGeometry relative="1" as="geometry" />
        </mxCell>
        <mxCell id="rHQZIwRg0L-bGv6IgCnG-134" value="&lt;font style=&quot;font-size: 13px;&quot;&gt;社群討論&lt;/font&gt;" style="edgeLabel;html=1;align=center;verticalAlign=middle;resizable=0;points=[];" parent="rHQZIwRg0L-bGv6IgCnG-133" vertex="1" connectable="0">
          <mxGeometry x="-0.7369" y="4" relative="1" as="geometry">
            <mxPoint as="offset" />
          </mxGeometry>
        </mxCell>
        <mxCell id="rHQZIwRg0L-bGv6IgCnG-13" value="選擇功能" style="rhombus;strokeWidth=2;whiteSpace=wrap;fontSize=14;" parent="1" vertex="1">
          <mxGeometry x="443" y="1100" width="118" height="118" as="geometry" />
        </mxCell>
        <mxCell id="rHQZIwRg0L-bGv6IgCnG-137" style="edgeStyle=orthogonalEdgeStyle;rounded=0;orthogonalLoop=1;jettySize=auto;html=1;exitX=0.5;exitY=1;exitDx=0;exitDy=0;entryX=0.5;entryY=0;entryDx=0;entryDy=0;endArrow=block;endFill=0;" parent="1" source="rHQZIwRg0L-bGv6IgCnG-14" target="rHQZIwRg0L-bGv6IgCnG-18" edge="1">
          <mxGeometry relative="1" as="geometry" />
        </mxCell>
        <mxCell id="rHQZIwRg0L-bGv6IgCnG-14" value="閱讀頁面" style="whiteSpace=wrap;strokeWidth=2;fontSize=14;" parent="1" vertex="1">
          <mxGeometry x="20" y="1351" width="156" height="54" as="geometry" />
        </mxCell>
        <mxCell id="rHQZIwRg0L-bGv6IgCnG-142" style="edgeStyle=orthogonalEdgeStyle;rounded=0;orthogonalLoop=1;jettySize=auto;html=1;exitX=0.5;exitY=1;exitDx=0;exitDy=0;entryX=0.5;entryY=0;entryDx=0;entryDy=0;endArrow=block;endFill=0;" parent="1" source="rHQZIwRg0L-bGv6IgCnG-15" target="rHQZIwRg0L-bGv6IgCnG-18" edge="1">
          <mxGeometry relative="1" as="geometry" />
        </mxCell>
        <mxCell id="rHQZIwRg0L-bGv6IgCnG-15" value="人物關係圖譜頁面" style="whiteSpace=wrap;strokeWidth=2;fontSize=14;" parent="1" vertex="1">
          <mxGeometry x="226" y="1351" width="156" height="54" as="geometry" />
        </mxCell>
        <mxCell id="rHQZIwRg0L-bGv6IgCnG-143" style="edgeStyle=orthogonalEdgeStyle;rounded=0;orthogonalLoop=1;jettySize=auto;html=1;exitX=0.5;exitY=1;exitDx=0;exitDy=0;entryX=0.5;entryY=0;entryDx=0;entryDy=0;endArrow=block;endFill=0;" parent="1" source="rHQZIwRg0L-bGv6IgCnG-16" target="rHQZIwRg0L-bGv6IgCnG-18" edge="1">
          <mxGeometry relative="1" as="geometry" />
        </mxCell>
        <mxCell id="rHQZIwRg0L-bGv6IgCnG-16" value="成就系統頁面" style="whiteSpace=wrap;strokeWidth=2;fontSize=14;" parent="1" vertex="1">
          <mxGeometry x="424" y="1351" width="156" height="54" as="geometry" />
        </mxCell>
        <mxCell id="rHQZIwRg0L-bGv6IgCnG-141" style="edgeStyle=orthogonalEdgeStyle;rounded=0;orthogonalLoop=1;jettySize=auto;html=1;exitX=0.5;exitY=1;exitDx=0;exitDy=0;entryX=0.5;entryY=0;entryDx=0;entryDy=0;endArrow=block;endFill=0;" parent="1" source="rHQZIwRg0L-bGv6IgCnG-17" target="rHQZIwRg0L-bGv6IgCnG-18" edge="1">
          <mxGeometry relative="1" as="geometry" />
        </mxCell>
        <mxCell id="rHQZIwRg0L-bGv6IgCnG-17" value="紅學社頁面" style="whiteSpace=wrap;strokeWidth=2;fontSize=14;" parent="1" vertex="1">
          <mxGeometry x="638" y="1351" width="140" height="54" as="geometry" />
        </mxCell>
        <mxCell id="rHQZIwRg0L-bGv6IgCnG-18" value="用戶學習行為追蹤" style="whiteSpace=wrap;strokeWidth=2;fontSize=14;" parent="1" vertex="1">
          <mxGeometry x="329" y="1500" width="156" height="54" as="geometry" />
        </mxCell>
        <mxCell id="rHQZIwRg0L-bGv6IgCnG-145" style="edgeStyle=orthogonalEdgeStyle;rounded=0;orthogonalLoop=1;jettySize=auto;html=1;exitX=0.5;exitY=1;exitDx=0;exitDy=0;entryX=0;entryY=0.5;entryDx=0;entryDy=0;" parent="1" source="rHQZIwRg0L-bGv6IgCnG-20" target="rHQZIwRg0L-bGv6IgCnG-21" edge="1">
          <mxGeometry relative="1" as="geometry" />
        </mxCell>
        <mxCell id="rHQZIwRg0L-bGv6IgCnG-20" value="資料庫更新用戶資料" style="whiteSpace=wrap;strokeWidth=2;fontSize=14;" parent="1" vertex="1">
          <mxGeometry x="329" y="1610" width="156" height="54" as="geometry" />
        </mxCell>
        <mxCell id="rHQZIwRg0L-bGv6IgCnG-135" style="edgeStyle=orthogonalEdgeStyle;rounded=0;orthogonalLoop=1;jettySize=auto;html=1;exitX=1;exitY=0.5;exitDx=0;exitDy=0;entryX=1;entryY=0;entryDx=0;entryDy=0;endArrow=block;endFill=0;" parent="1" source="rHQZIwRg0L-bGv6IgCnG-21" target="rHQZIwRg0L-bGv6IgCnG-13" edge="1">
          <mxGeometry relative="1" as="geometry">
            <Array as="points">
              <mxPoint x="810" y="1754" />
              <mxPoint x="810" y="1130" />
            </Array>
          </mxGeometry>
        </mxCell>
        <mxCell id="rHQZIwRg0L-bGv6IgCnG-136" value="是" style="edgeLabel;html=1;align=center;verticalAlign=middle;resizable=0;points=[];fontSize=15;" parent="rHQZIwRg0L-bGv6IgCnG-135" vertex="1" connectable="0">
          <mxGeometry x="-0.9234" relative="1" as="geometry">
            <mxPoint as="offset" />
          </mxGeometry>
        </mxCell>
        <mxCell id="rHQZIwRg0L-bGv6IgCnG-21" value="繼續使用?" style="rhombus;strokeWidth=2;whiteSpace=wrap;fontSize=14;" parent="1" vertex="1">
          <mxGeometry x="497" y="1692" width="124" height="124" as="geometry" />
        </mxCell>
        <mxCell id="rHQZIwRg0L-bGv6IgCnG-23" value="" style="curved=1;startArrow=none;endArrow=block;exitX=0.5;exitY=1;entryX=0.5;entryY=0;rounded=0;exitDx=0;exitDy=0;endFill=0;" parent="1" source="rHQZIwRg0L-bGv6IgCnG-110" target="rHQZIwRg0L-bGv6IgCnG-2" edge="1">
          <mxGeometry relative="1" as="geometry">
            <Array as="points" />
            <mxPoint x="502" y="74" as="sourcePoint" />
          </mxGeometry>
        </mxCell>
        <mxCell id="rHQZIwRg0L-bGv6IgCnG-24" value="" style="curved=1;startArrow=none;endArrow=block;exitX=0.5;exitY=1;entryX=0.5;entryY=0;rounded=0;endFill=0;" parent="1" source="rHQZIwRg0L-bGv6IgCnG-2" target="rHQZIwRg0L-bGv6IgCnG-3" edge="1">
          <mxGeometry relative="1" as="geometry">
            <Array as="points" />
          </mxGeometry>
        </mxCell>
        <mxCell id="rHQZIwRg0L-bGv6IgCnG-27" value="" style="curved=1;startArrow=none;endArrow=block;exitX=0.5;exitY=1.01;entryX=0.5;entryY=0.01;rounded=0;endFill=0;" parent="1" source="rHQZIwRg0L-bGv6IgCnG-4" target="rHQZIwRg0L-bGv6IgCnG-6" edge="1">
          <mxGeometry relative="1" as="geometry">
            <Array as="points" />
          </mxGeometry>
        </mxCell>
        <mxCell id="rHQZIwRg0L-bGv6IgCnG-28" value="" style="curved=1;startArrow=none;endArrow=block;exitX=0.5;exitY=1.01;entryX=0.5;entryY=0.01;rounded=0;endFill=0;" parent="1" source="rHQZIwRg0L-bGv6IgCnG-6" target="rHQZIwRg0L-bGv6IgCnG-7" edge="1">
          <mxGeometry relative="1" as="geometry">
            <Array as="points" />
          </mxGeometry>
        </mxCell>
        <mxCell id="rHQZIwRg0L-bGv6IgCnG-34" value="" style="curved=1;startArrow=none;endArrow=block;exitX=0.5;exitY=1;entryX=0.5;entryY=0;rounded=0;endFill=0;" parent="1" source="rHQZIwRg0L-bGv6IgCnG-8" target="rHQZIwRg0L-bGv6IgCnG-11" edge="1">
          <mxGeometry relative="1" as="geometry">
            <Array as="points" />
          </mxGeometry>
        </mxCell>
        <mxCell id="rHQZIwRg0L-bGv6IgCnG-45" value="" style="curved=1;startArrow=none;endArrow=block;exitX=0.5;exitY=1;entryX=0.5;entryY=0;rounded=0;entryDx=0;entryDy=0;endFill=0;" parent="1" source="rHQZIwRg0L-bGv6IgCnG-18" target="rHQZIwRg0L-bGv6IgCnG-20" edge="1">
          <mxGeometry relative="1" as="geometry">
            <Array as="points" />
            <mxPoint x="407" y="1582" as="targetPoint" />
          </mxGeometry>
        </mxCell>
        <mxCell id="rHQZIwRg0L-bGv6IgCnG-49" value="否" style="curved=1;startArrow=none;endArrow=block;exitX=0.5;exitY=1;entryX=0.5;entryY=0;rounded=0;entryDx=0;entryDy=0;fontSize=14;" parent="1" source="rHQZIwRg0L-bGv6IgCnG-21" target="rHQZIwRg0L-bGv6IgCnG-109" edge="1">
          <mxGeometry relative="1" as="geometry">
            <Array as="points" />
            <mxPoint x="559" y="1986" as="targetPoint" />
          </mxGeometry>
        </mxCell>
        <mxCell id="rHQZIwRg0L-bGv6IgCnG-109" value="結束系統" style="ellipse;whiteSpace=wrap;html=1;fontSize=14;" parent="1" vertex="1">
          <mxGeometry x="518.5" y="1880" width="81" height="80" as="geometry" />
        </mxCell>
        <mxCell id="rHQZIwRg0L-bGv6IgCnG-110" value="&lt;font style=&quot;font-size: 13px;&quot;&gt;系統啟動&lt;/font&gt;" style="ellipse;whiteSpace=wrap;html=1;fontStyle=0" parent="1" vertex="1">
          <mxGeometry x="462" y="20" width="80" height="80" as="geometry" />
        </mxCell>
      </root>
    </mxGraphModel>
  </diagram>
</mxfile>
